<svg width="48" height="49" viewBox="0 0 48 49" fill="none" xmlns="http://www.w3.org/2000/svg">
<rect y="0.18457" width="48" height="48" rx="24" fill="white"/>
<rect x="10" y="10.1846" width="28" height="28" rx="6" fill="url(#paint0_radial_4732_1923)"/>
<rect x="10" y="10.1846" width="28" height="28" rx="6" fill="#DA7D4A"/>
<path d="M31 18.6846C31 19.513 30.3284 20.1846 29.5 20.1846C28.6716 20.1846 28 19.513 28 18.6846C28 17.8561 28.6716 17.1846 29.5 17.1846C30.3284 17.1846 31 17.8561 31 18.6846Z" fill="white"/>
<path fill-rule="evenodd" clip-rule="evenodd" d="M24 29.1846C26.7614 29.1846 29 26.946 29 24.1846C29 21.4231 26.7614 19.1846 24 19.1846C21.2386 19.1846 19 21.4231 19 24.1846C19 26.946 21.2386 29.1846 24 29.1846ZM24 27.1846C25.6569 27.1846 27 25.8414 27 24.1846C27 22.5277 25.6569 21.1846 24 21.1846C22.3431 21.1846 21 22.5277 21 24.1846C21 25.8414 22.3431 27.1846 24 27.1846Z" fill="white"/>
<path fill-rule="evenodd" clip-rule="evenodd" d="M14 23.7846C14 20.4243 14 18.7441 14.654 17.4606C15.2292 16.3317 16.1471 15.4138 17.2761 14.8385C18.5595 14.1846 20.2397 14.1846 23.6 14.1846H24.4C27.7603 14.1846 29.4405 14.1846 30.7239 14.8385C31.8529 15.4138 32.7708 16.3317 33.346 17.4606C34 18.7441 34 20.4243 34 23.7846V24.5846C34 27.9449 34 29.625 33.346 30.9085C32.7708 32.0375 31.8529 32.9554 30.7239 33.5306C29.4405 34.1846 27.7603 34.1846 24.4 34.1846H23.6C20.2397 34.1846 18.5595 34.1846 17.2761 33.5306C16.1471 32.9554 15.2292 32.0375 14.654 30.9085C14 29.625 14 27.9449 14 24.5846V23.7846ZM23.6 16.1846H24.4C26.1132 16.1846 27.2777 16.1861 28.1779 16.2597C29.0548 16.3313 29.5032 16.4612 29.816 16.6205C30.5686 17.004 31.1805 17.616 31.564 18.3686C31.7234 18.6814 31.8533 19.1298 31.9249 20.0066C31.9984 20.9068 32 22.0714 32 23.7846V24.5846C32 26.2977 31.9984 27.4623 31.9249 28.3625C31.8533 29.2393 31.7234 29.6877 31.564 30.0005C31.1805 30.7532 30.5686 31.3651 29.816 31.7486C29.5032 31.908 29.0548 32.0378 28.1779 32.1095C27.2777 32.183 26.1132 32.1846 24.4 32.1846H23.6C21.8868 32.1846 20.7223 32.183 19.8221 32.1095C18.9452 32.0378 18.4968 31.908 18.184 31.7486C17.4314 31.3651 16.8195 30.7532 16.436 30.0005C16.2766 29.6877 16.1467 29.2393 16.0751 28.3625C16.0016 27.4623 16 26.2977 16 24.5846V23.7846C16 22.0714 16.0016 20.9068 16.0751 20.0066C16.1467 19.1298 16.2766 18.6814 16.436 18.3686C16.8195 17.616 17.4314 17.004 18.184 16.6205C18.4968 16.4612 18.9452 16.3313 19.8221 16.2597C20.7223 16.1861 21.8868 16.1846 23.6 16.1846Z" fill="white"/>
<defs>
<radialGradient id="paint0_radial_4732_1923" cx="0" cy="0" r="1" gradientUnits="userSpaceOnUse" gradientTransform="translate(20 31.1846) rotate(-55.3758) scale(25.5196)">
<stop stop-color="#B13589"/>
<stop offset="0.79309" stop-color="#C62F94"/>
<stop offset="1" stop-color="#8A3AC8"/>
</radialGradient>
</defs>
</svg>
