<svg width="48" height="49" viewBox="0 0 48 49" fill="none" xmlns="http://www.w3.org/2000/svg">
<rect y="0.18457" width="48" height="48" rx="24" fill="white"/>
<path d="M10.2445 18.1257C10.373 16.1469 11.9639 14.5961 13.9445 14.498C16.8124 14.3559 20.9115 14.1846 24 14.1846C27.0885 14.1846 31.1876 14.3559 34.0555 14.498C36.0361 14.5961 37.627 16.1469 37.7555 18.1257C37.8786 20.0215 38 22.3542 38 24.1846C38 26.0149 37.8786 28.3476 37.7555 30.2435C37.627 32.2222 36.0361 33.773 34.0555 33.8711C31.1876 34.0132 27.0885 34.1846 24 34.1846C20.9115 34.1846 16.8124 34.0132 13.9445 33.8711C11.9639 33.773 10.373 32.2222 10.2445 30.2435C10.1214 28.3476 10 26.0149 10 24.1846C10 22.3542 10.1214 20.0215 10.2445 18.1257Z" fill="#DA7D4A"/>
<path d="M21 20.1846V28.1846L29 24.1846L21 20.1846Z" fill="white"/>
</svg>
